<svg width="36" height="36" viewBox="0 0 36 36" fill="none" xmlns="http://www.w3.org/2000/svg">
<rect width="36" height="36" rx="18" fill="#161F36"/>
<path d="M24.4146 12.5857C24.4145 12.3205 24.3092 12.0662 24.1217 11.8787C23.9342 11.6912 23.6799 11.5859 23.4147 11.5858L15.4145 11.5858C15.2817 11.5835 15.1498 11.6077 15.0265 11.6569C14.9032 11.7061 14.7909 11.7794 14.6962 11.8725C14.6015 11.9655 14.5263 12.0765 14.4749 12.199C14.4236 12.3215 14.3971 12.4529 14.3971 12.5857C14.3971 12.7185 14.4236 12.8499 14.4749 12.9724C14.5263 13.0948 14.6015 13.2058 14.6962 13.2989C14.7909 13.392 14.9032 13.4653 15.0265 13.5145C15.1498 13.5637 15.2817 13.5879 15.4145 13.5855L21.0006 13.5855L11.6364 22.9498C11.4489 23.1373 11.3435 23.3917 11.3435 23.6569C11.3435 23.9221 11.4489 24.1764 11.6364 24.364C11.824 24.5515 12.0783 24.6569 12.3435 24.6569C12.6088 24.6569 12.8631 24.5515 13.0506 24.364L22.4149 14.9998L22.4149 20.5859C22.4194 20.8481 22.5268 21.098 22.7138 21.2817C22.9008 21.4655 23.1525 21.5685 23.4147 21.5685C23.6769 21.5685 23.9286 21.4655 24.1156 21.2817C24.3027 21.098 24.41 20.8481 24.4146 20.5859L24.4146 12.5857Z" fill="white"/>
</svg>
