<svg width="30" height="30" viewBox="0 0 30 30" fill="none" xmlns="http://www.w3.org/2000/svg">
<rect width="30" height="30" rx="15" fill="#C50B0B"/>
<path d="M10.8335 22.5C10.3752 22.5 9.98294 22.3369 9.65683 22.0108C9.33072 21.6847 9.16738 21.2922 9.16683 20.8333V10H8.3335V8.33333H12.5002V7.5H17.5002V8.33333H21.6668V10H20.8335V20.8333C20.8335 21.2917 20.6704 21.6842 20.3443 22.0108C20.0182 22.3375 19.6257 22.5006 19.1668 22.5H10.8335ZM19.1668 10H10.8335V20.8333H19.1668V10ZM12.5002 19.1667H14.1668V11.6667H12.5002V19.1667ZM15.8335 19.1667H17.5002V11.6667H15.8335V19.1667Z" fill="#F4F4F4"/>
</svg>
