<svg width="27" height="27" viewBox="0 0 27 27" fill="none" xmlns="http://www.w3.org/2000/svg">
<path fill-rule="evenodd" clip-rule="evenodd" d="M2.69185 13.4592C2.69204 11.3871 3.29013 9.35907 4.41434 7.61844C5.53856 5.87781 7.14114 4.49854 9.02981 3.64612C10.9185 2.79371 13.013 2.50436 15.062 2.81281C17.111 3.12125 19.0275 4.01438 20.5816 5.38503C22.1356 6.75567 23.2611 8.54561 23.8231 10.5401C24.385 12.5345 24.3596 14.6488 23.7497 16.6291C23.1399 18.6095 21.9716 20.3718 20.385 21.7046C18.7985 23.0374 16.861 23.8841 14.8052 24.1432V16.1511H17.497C17.854 16.1511 18.1963 16.0093 18.4487 15.7569C18.7011 15.5045 18.8429 15.1621 18.8429 14.8052C18.8429 14.4482 18.7011 14.1058 18.4487 13.8534C18.1963 13.601 17.854 13.4592 17.497 13.4592H14.8052V10.7674C14.8052 10.4104 14.947 10.0681 15.1994 9.81567C15.4518 9.56326 15.7941 9.42146 16.1511 9.42146H16.824C17.181 9.42146 17.5233 9.27966 17.7757 9.02725C18.0282 8.77484 18.17 8.4325 18.17 8.07554C18.17 7.71858 18.0282 7.37624 17.7757 7.12383C17.5233 6.87142 17.181 6.72961 16.824 6.72961H16.1511C15.0802 6.72961 14.0532 7.15502 13.2959 7.91225C12.5387 8.66948 12.1133 9.6965 12.1133 10.7674V13.4592H9.42146C9.0645 13.4592 8.72216 13.601 8.46975 13.8534C8.21734 14.1058 8.07554 14.4482 8.07554 14.8052C8.07554 15.1621 8.21734 15.5045 8.46975 15.7569C8.72216 16.0093 9.0645 16.1511 9.42146 16.1511H12.1133V24.1432C9.51112 23.8153 7.11806 22.549 5.38336 20.5818C3.64866 18.6147 2.6916 16.082 2.69185 13.4592ZM13.4592 26.9185C20.8928 26.9185 26.9185 20.8928 26.9185 13.4592C26.9185 6.0257 20.8928 0 13.4592 0C6.0257 0 0 6.0257 0 13.4592C0 20.8928 6.0257 26.9185 13.4592 26.9185Z" fill="black"/>
</svg>
