<svg width="28" height="23" viewBox="0 0 28 23" fill="none" xmlns="http://www.w3.org/2000/svg">
<path d="M5.57268 4.41314C5.42241 4.3321 5.25368 4.29145 5.083 4.29515C4.91231 4.29886 4.74551 4.3468 4.5989 4.43429C4.45229 4.52178 4.3309 4.64582 4.24659 4.79428C4.16228 4.94273 4.11795 5.11053 4.11792 5.28126V17.7769C4.11792 18.0386 4.22185 18.2895 4.40686 18.4745C4.59186 18.6595 4.84278 18.7634 5.10442 18.7634C5.36606 18.7634 5.61698 18.6595 5.80198 18.4745C5.98699 18.2895 6.09092 18.0386 6.09092 17.7769V6.93332L13.1858 10.753C13.4778 10.9109 13.8303 10.9109 14.1223 10.753L21.2173 6.93332V17.7769C21.2173 18.0386 21.3212 18.2895 21.5062 18.4745C21.6912 18.6595 21.9421 18.7634 22.2038 18.7634C22.4654 18.7634 22.7163 18.6595 22.9013 18.4745C23.0863 18.2895 23.1903 18.0386 23.1903 17.7769V5.28126C23.1902 5.11053 23.1459 4.94273 23.0616 4.79428C22.9773 4.64582 22.8559 4.52178 22.7093 4.43429C22.5627 4.3468 22.3959 4.29886 22.2252 4.29515C22.0545 4.29145 21.8858 4.3321 21.7355 4.41314L13.6541 8.76426L5.57268 4.41314Z" fill="black"/>
<path fill-rule="evenodd" clip-rule="evenodd" d="M20.6384 0.311755C15.9914 -0.103918 11.3166 -0.103918 6.66958 0.311755L4.67291 0.489325C3.63286 0.582196 2.65447 1.02293 1.89577 1.74035C1.13706 2.45777 0.642323 3.40999 0.49146 4.44322C-0.16382 8.92397 -0.16382 13.4762 0.49146 17.957C0.642651 18.9901 1.1377 19.9422 1.89664 20.6594C2.65559 21.3766 3.63413 21.817 4.67422 21.9095L6.66827 22.0884C11.3167 22.5041 15.9914 22.5041 20.6397 22.0884L22.6351 21.9095C23.675 21.8167 24.6532 21.3762 25.4119 20.659C26.1706 19.9419 26.6654 18.9899 26.8165 17.957C27.4718 13.4762 27.4718 8.92397 26.8165 4.44322C26.6656 3.40978 26.1707 2.45741 25.4117 1.73997C24.6528 1.02252 23.6741 0.581915 22.6338 0.489325L20.6384 0.311755ZM6.84584 2.27686C11.3764 1.87085 15.9342 1.87085 20.4648 2.27686L22.4602 2.45575C23.0583 2.50888 23.6211 2.7621 24.0577 3.17451C24.4942 3.58693 24.7789 4.13445 24.8659 4.72864C25.4935 9.02011 25.4935 13.3801 24.8659 17.6715C24.7789 18.2657 24.4942 18.8132 24.0577 19.2257C23.6211 19.6381 23.0583 19.8913 22.4602 19.9444L20.4648 20.1233C15.9348 20.5284 11.3758 20.5284 6.84584 20.1233L4.85048 19.9444C4.2523 19.8913 3.6895 19.6381 3.25298 19.2257C2.81646 18.8132 2.53172 18.2657 2.44473 17.6715C1.81712 13.3801 1.81712 9.02011 2.44473 4.72864C2.53172 4.13445 2.81646 3.58693 3.25298 3.17451C3.6895 2.7621 4.2523 2.50888 4.85048 2.45575L6.84584 2.27686Z" fill="black"/>
</svg>
