<svg width="26" height="26" viewBox="0 0 26 26" fill="none" xmlns="http://www.w3.org/2000/svg">
<path d="M7.2741 0H17.809C21.8223 0 25.0831 3.2608 25.0831 7.2741V17.809C25.0831 19.7382 24.3167 21.5884 22.9526 22.9526C21.5884 24.3167 19.7382 25.0831 17.809 25.0831H7.2741C3.2608 25.0831 0 21.8223 0 17.809V7.2741C0 5.34489 0.766376 3.49469 2.13053 2.13053C3.49469 0.766376 5.34489 0 7.2741 0ZM7.02327 2.50831C5.82583 2.50831 4.67743 2.98399 3.83071 3.83071C2.98399 4.67743 2.50831 5.82583 2.50831 7.02327V18.0598C2.50831 20.5556 4.5275 22.5748 7.02327 22.5748H18.0598C19.2573 22.5748 20.4057 22.0991 21.2524 21.2524C22.0991 20.4057 22.5748 19.2573 22.5748 18.0598V7.02327C22.5748 4.5275 20.5556 2.50831 18.0598 2.50831H7.02327ZM19.1259 4.38954C19.5416 4.38954 19.9404 4.55471 20.2344 4.84871C20.5284 5.14271 20.6936 5.54146 20.6936 5.95724C20.6936 6.37302 20.5284 6.77177 20.2344 7.06576C19.9404 7.35976 19.5416 7.52493 19.1259 7.52493C18.7101 7.52493 18.3113 7.35976 18.0173 7.06576C17.7233 6.77177 17.5582 6.37302 17.5582 5.95724C17.5582 5.54146 17.7233 5.14271 18.0173 4.84871C18.3113 4.55471 18.7101 4.38954 19.1259 4.38954ZM12.5416 6.27078C14.2047 6.27078 15.7997 6.93145 16.9757 8.10744C18.1517 9.28344 18.8123 10.8784 18.8123 12.5416C18.8123 14.2047 18.1517 15.7997 16.9757 16.9757C15.7997 18.1517 14.2047 18.8123 12.5416 18.8123C10.8784 18.8123 9.28344 18.1517 8.10744 16.9757C6.93145 15.7997 6.27078 14.2047 6.27078 12.5416C6.27078 10.8784 6.93145 9.28344 8.10744 8.10744C9.28344 6.93145 10.8784 6.27078 12.5416 6.27078ZM12.5416 8.77909C11.5437 8.77909 10.5867 9.17549 9.88109 9.88109C9.17549 10.5867 8.77909 11.5437 8.77909 12.5416C8.77909 13.5394 9.17549 14.4964 9.88109 15.202C10.5867 15.9076 11.5437 16.304 12.5416 16.304C13.5394 16.304 14.4964 15.9076 15.202 15.202C15.9076 14.4964 16.304 13.5394 16.304 12.5416C16.304 11.5437 15.9076 10.5867 15.202 9.88109C14.4964 9.17549 13.5394 8.77909 12.5416 8.77909Z" fill="black"/>
</svg>
