<svg width="49" height="47" viewBox="0 0 49 47" fill="none" xmlns="http://www.w3.org/2000/svg">
<path fill-rule="evenodd" clip-rule="evenodd" d="M24.5 42.5938C27.9946 42.5987 31.4284 41.717 34.4531 40.0381V33.7812C34.4531 32.0283 33.7271 30.3472 32.4349 29.1077C31.1427 27.8682 29.39 27.1719 27.5625 27.1719H21.4375C19.61 27.1719 17.8573 27.8682 16.5651 29.1077C15.2729 30.3472 14.5469 32.0283 14.5469 33.7812V40.0381C17.5716 41.717 21.0054 42.5987 24.5 42.5938ZM39.0469 33.7812V36.5337C41.695 33.8145 43.4571 30.4123 44.1166 26.7454C44.776 23.0785 44.304 19.3068 42.7586 15.8937C41.2132 12.4807 38.6618 9.57511 35.418 7.53423C32.1742 5.49334 28.3794 4.40607 24.5 4.40607C20.6206 4.40607 16.8258 5.49334 13.582 7.53423C10.3382 9.57511 7.78675 12.4807 6.24137 15.8937C4.696 19.3068 4.22402 23.0785 4.88344 26.7454C5.54287 30.4123 7.30497 33.8145 9.95312 36.5337V33.7812C9.95221 31.51 10.6833 29.294 12.0462 27.4367C13.4091 25.5794 15.3372 24.1716 17.5665 23.406C16.4101 22.1301 15.6606 20.5621 15.4076 18.889C15.1546 17.2159 15.4087 15.5083 16.1396 13.9698C16.8705 12.4314 18.0473 11.1271 19.5297 10.2125C21.012 9.29785 22.7374 8.81154 24.5 8.81154C26.2626 8.81154 27.988 9.29785 29.4703 10.2125C30.9527 11.1271 32.1295 12.4314 32.8604 13.9698C33.5913 15.5083 33.8454 17.2159 33.5924 18.889C33.3394 20.5621 32.5899 22.1301 31.4335 23.406C33.6628 24.1716 35.591 25.5794 36.9538 27.4367C38.3167 29.294 39.0478 31.51 39.0469 33.7812ZM24.5 47C30.9978 47 37.2295 44.5241 41.8241 40.117C46.4188 35.7099 49 29.7326 49 23.5C49 17.2674 46.4188 11.2901 41.8241 6.88299C37.2295 2.47589 30.9978 0 24.5 0C18.0022 0 11.7705 2.47589 7.17588 6.88299C2.58124 11.2901 0 17.2674 0 23.5C0 29.7326 2.58124 35.7099 7.17588 40.117C11.7705 44.5241 18.0022 47 24.5 47ZM29.0938 17.625C29.0938 18.7936 28.6098 19.9144 27.7483 20.7407C26.8868 21.567 25.7183 22.0312 24.5 22.0312C23.2817 22.0312 22.1132 21.567 21.2517 20.7407C20.3902 19.9144 19.9062 18.7936 19.9062 17.625C19.9062 16.4564 20.3902 15.3356 21.2517 14.5093C22.1132 13.683 23.2817 13.2188 24.5 13.2188C25.7183 13.2188 26.8868 13.683 27.7483 14.5093C28.6098 15.3356 29.0938 16.4564 29.0938 17.625Z" fill="#161F36"/>
</svg>
