<svg width="27" height="22" viewBox="0 0 27 22" fill="none" xmlns="http://www.w3.org/2000/svg">
<path d="M23.6977 4.03104C23.5954 3.62995 23.3047 3.32712 22.9722 3.23425C22.3827 3.0687 19.5172 2.69185 13.4606 2.69185C7.40392 2.69185 4.5398 3.0687 3.94625 3.23425C3.61784 3.32577 3.32712 3.62861 3.22348 4.03104C3.07678 4.60171 2.69319 6.99207 2.69319 10.7674C2.69319 14.5427 3.07678 16.9317 3.22348 17.5051C3.32577 17.9048 3.61649 18.2076 3.94759 18.2992C4.5398 18.4661 7.40257 18.8429 13.4592 18.8429C19.5159 18.8429 22.3813 18.4661 22.9736 18.3005C23.302 18.209 23.5927 17.9062 23.6963 17.5037C23.8444 16.9331 24.2266 14.536 24.2266 10.7674C24.2266 6.9988 23.8444 4.60306 23.6977 4.03104ZM26.3034 3.36211C26.9185 5.76055 26.9185 10.7674 26.9185 10.7674C26.9185 10.7674 26.9185 15.7742 26.3034 18.1726C25.9615 19.4984 24.9615 20.5415 23.695 20.8941C21.3961 21.5348 13.4592 21.5348 13.4592 21.5348C13.4592 21.5348 5.5277 21.5348 3.22348 20.8941C1.95159 20.5361 0.952913 19.4943 0.615087 18.1726C4.01116e-08 15.7742 0 10.7674 0 10.7674C0 10.7674 4.01116e-08 5.76055 0.615087 3.36211C0.956951 2.03638 1.95697 0.993291 3.22348 0.640659C5.52905 -2.4067e-07 13.4606 0 13.4606 0C13.4606 0 21.3961 -2.4067e-07 23.6963 0.640659C24.9669 0.998674 25.9669 2.04042 26.3047 3.36211M10.7687 15.4781V6.05665L18.8443 10.7674L10.7687 15.4781Z" fill="black"/>
</svg>
